# xmcd
#
# Track frame offsets:
#	150
#	15402
#	28752
#	46757
#	69062
#	81047
#	95637
#	114065
#	133046
#	151705
#	167083
#	180685
#
# Disc length: 2635 seconds
#
# Revision: 0
# Processed by: cddbd v1.5.2PL0 Copyright (c) Steve Scherf et al.
# Submitted via: EasyCDDAExtractor 12.0.0.1
#
DISCID=810a490c
DTITLE=Orquestra de Violeiros de Mauá - Brasil Sertanejo - Volume 06
DYEAR=2011
DGENRE=Country
TTITLE0=Asa Branca
TTITLE1=Meu Sertão
TTITLE2=Boiadeiro Errante
TTITLE3=Lembrança
TTITLE4=Beijinho Doce
TTITLE5=Cana Verde
TTITLE6=Índia
TTITLE7=Chico Mulato
TTITLE8=Seresteiro da Lua
TTITLE9=Capelinha do Chico Mineiro
TTITLE10=O Que Tem a Rosa
TTITLE11=Assim é Meu Sertão
EXTD=
EXTT0=
EXTT1=
EXTT2=
EXTT3=
EXTT4=
EXTT5=
EXTT6=
EXTT7=
EXTT8=
EXTT9=
EXTT10=
EXTT11=
PLAYORDER=
